<?xml version="1.0" standalone="no"?>
<!DOCTYPE svg PUBLIC "-//W3C//DTD SVG 20010904//EN"
 "http://www.w3.org/TR/2001/REC-SVG-20010904/DTD/svg10.dtd">
<svg version="1.0" xmlns="http://www.w3.org/2000/svg"
 width="512.000000pt" height="512.000000pt" viewBox="0 0 512.000000 512.000000"
 preserveAspectRatio="xMidYMid meet">

<g transform="translate(0.000000,512.000000) scale(0.100000,-0.100000)"
fill="#000000" stroke="none">
<path d="M566 4675 c-112 -40 -166 -172 -115 -285 15 -35 220 -246 912 -937
l892 -893 -902 -902 c-879 -880 -902 -904 -917 -958 -50 -172 105 -317 279
-261 33 11 196 169 943 915 l902 901 893 -892 c691 -692 902 -897 937 -912
179 -81 360 100 279 279 -15 35 -221 246 -912 938 l-892 892 892 893 c691 691
897 902 912 937 81 180 -99 360 -279 279 -35 -15 -246 -221 -937 -912 l-893
-892 -892 892 c-692 691 -903 897 -938 912 -52 24 -109 26 -164 6z"/>
</g>
</svg>
