<?xml version="1.0" standalone="no"?>
<!DOCTYPE svg PUBLIC "-//W3C//DTD SVG 20010904//EN"
 "http://www.w3.org/TR/2001/REC-SVG-20010904/DTD/svg10.dtd">
<svg version="1.0" xmlns="http://www.w3.org/2000/svg"
 width="564.000000pt" height="564.000000pt" viewBox="0 0 564.000000 564.000000"
 preserveAspectRatio="xMidYMid meet">

<g transform="translate(0.000000,564.000000) scale(0.100000,-0.100000)"
fill="#000000" stroke="none">
<path d="M1600 3607 c-62 -31 -62 -118 0 -149 33 -17 112 -18 1225 -18 1162 0
1191 1 1222 20 60 36 52 126 -13 150 -16 6 -484 10 -1217 10 -941 0 -1197 -3
-1217 -13z"/>
<path d="M1600 2897 c-52 -27 -62 -104 -18 -143 19 -18 66 -19 1239 -19 l1218
0 23 23 c31 31 31 93 0 124 l-23 23 -1207 2 c-960 2 -1212 0 -1232 -10z"/>
<path d="M1593 2181 c-56 -34 -52 -118 7 -148 37 -19 2403 -19 2440 0 59 30
63 114 7 148 -31 18 -65 19 -1227 19 -1162 0 -1196 -1 -1227 -19z"/>
</g>
</svg>
