<?xml version="1.0" standalone="no"?>
<!DOCTYPE svg PUBLIC "-//W3C//DTD SVG 20010904//EN"
 "http://www.w3.org/TR/2001/REC-SVG-20010904/DTD/svg10.dtd">
<svg version="1.0" xmlns="http://www.w3.org/2000/svg"
 width="1254.000000pt" height="480.000000pt" viewBox="0 0 1254.000000 480.000000"
 preserveAspectRatio="xMidYMid meet">
<metadata>
Created by potrace 1.10, written by Peter Selinger 2001-2011
</metadata>
<g transform="translate(0.000000,480.000000) scale(0.100000,-0.100000)"
fill="#1d0153" stroke="none">
<path d="M2585 3091 c-44 -11 -107 -54 -141 -95 -16 -21 -34 -43 -39 -49 -29
-33 -104 -170 -124 -227 -13 -36 -27 -74 -31 -85 -19 -45 -57 -238 -70 -360
-6 -49 -15 -117 -20 -150 -5 -34 -13 -119 -16 -191 -7 -128 -7 -130 18 -159
49 -56 127 -32 148 45 12 44 24 55 65 63 17 3 64 13 105 22 156 33 237 47 285
49 l50 1 16 -60 c29 -113 54 -145 114 -145 40 0 72 23 90 67 18 42 21 289 5
387 -5 33 -14 93 -20 131 -25 177 -59 323 -102 450 -70 205 -212 335 -333 306z
m51 -306 c22 -62 43 -147 79 -315 36 -169 44 -224 34 -231 -6 -3 -43 -12 -82
-18 -76 -13 -135 -29 -236 -67 l-63 -23 6 37 c46 250 52 279 94 402 43 131
119 266 145 257 5 -1 15 -21 23 -42z"/>
<path d="M4394 2952 c-43 -37 -52 -78 -65 -292 -18 -310 -22 -574 -9 -667 14
-96 45 -146 115 -188 39 -22 52 -25 97 -19 67 8 102 28 125 71 18 33 18 35 -3
70 -13 22 -34 41 -52 48 -17 5 -34 13 -38 17 -9 9 -6 241 6 488 8 167 4 278
-16 405 -8 50 -38 77 -92 82 -35 3 -52 -1 -68 -15z"/>
<path d="M7405 2844 c-11 -3 -43 -16 -70 -30 -60 -29 -92 -77 -80 -121 4 -15
10 -135 14 -265 4 -169 10 -241 19 -250 6 -6 12 -21 12 -32 0 -55 83 -121 150
-120 111 3 271 112 321 218 50 108 64 251 34 349 -28 94 -106 185 -195 231
-35 18 -162 30 -205 20z m147 -243 c14 -16 31 -49 38 -75 18 -64 -8 -167 -53
-213 -44 -46 -57 -43 -57 15 0 26 -3 104 -7 175 l-6 127 31 0 c21 0 37 -9 54
-29z"/>
<path d="M9385 2844 c-11 -3 -43 -16 -70 -30 -60 -29 -92 -77 -80 -121 4 -15
10 -135 14 -265 4 -169 10 -241 19 -250 6 -6 12 -21 12 -32 0 -55 83 -121 150
-120 111 3 271 112 321 218 50 108 64 251 34 349 -28 94 -106 185 -195 231
-35 18 -162 30 -205 20z m147 -243 c14 -16 31 -49 38 -75 18 -64 -8 -167 -53
-213 -44 -46 -57 -43 -57 15 0 26 -3 104 -7 175 l-6 127 31 0 c21 0 37 -9 54
-29z"/>
<path d="M8015 2830 c-11 -5 -36 -11 -56 -14 -21 -4 -47 -18 -65 -37 l-29 -30
4 -248 c2 -161 -1 -280 -9 -338 -11 -79 -10 -96 4 -139 20 -60 56 -89 111 -89
66 0 115 57 115 135 0 22 4 40 8 40 5 0 18 -23 30 -51 25 -57 23 -53 92 -130
29 -33 73 -68 103 -84 l53 -26 36 20 c65 39 74 93 25 148 -45 52 -80 106 -119
186 l-33 68 56 52 c31 29 69 72 85 97 26 41 29 53 29 130 0 99 -17 140 -87
213 -74 76 -149 107 -257 106 -42 0 -85 -4 -96 -9z m158 -219 c27 -18 57 -62
57 -84 0 -15 -61 -67 -87 -73 -44 -11 -51 0 -55 83 -2 43 -2 81 0 86 6 14 57
7 85 -12z"/>
<path d="M3922 2803 c-96 -47 -188 -213 -262 -473 -11 -41 -27 -97 -35 -124
-8 -26 -15 -57 -15 -67 0 -10 -4 -21 -10 -24 -5 -3 -10 -28 -10 -55 0 -43 4
-54 35 -85 40 -39 76 -45 113 -19 23 16 55 77 66 125 9 39 45 57 135 67 87 9
101 4 101 -34 0 -57 68 -144 113 -144 30 0 77 35 94 70 48 99 -7 542 -82 660
-27 43 -87 98 -122 111 -36 14 -84 11 -121 -8z m65 -366 c10 -48 10 -63 0 -69
-15 -10 -87 -10 -87 -1 0 16 64 143 69 137 3 -3 11 -33 18 -67z"/>
<path d="M6862 2803 c-93 -45 -189 -216 -256 -453 -35 -127 -58 -207 -67 -234
-19 -61 -11 -103 26 -141 40 -39 76 -45 113 -19 23 16 55 77 66 125 9 39 45
57 135 67 87 9 101 4 101 -34 0 -57 68 -144 113 -144 28 0 77 35 91 65 33 71
30 224 -10 438 -30 168 -60 235 -129 296 -62 54 -120 65 -183 34z m65 -366
c10 -48 10 -63 0 -69 -15 -10 -87 -10 -87 -1 0 16 64 143 69 137 3 -3 11 -33
18 -67z"/>
<path d="M8842 2803 c-96 -47 -188 -213 -262 -473 -11 -41 -27 -97 -35 -124
-8 -26 -15 -57 -15 -67 0 -10 -4 -21 -10 -24 -5 -3 -10 -28 -10 -55 0 -43 4
-54 35 -85 40 -39 76 -45 113 -19 23 16 55 77 66 125 9 39 45 57 135 67 87 9
101 4 101 -34 0 -57 68 -144 113 -144 28 0 77 35 91 65 33 71 30 224 -10 438
-30 168 -60 235 -129 296 -62 54 -120 65 -183 34z m65 -366 c10 -48 10 -63 0
-69 -15 -10 -87 -10 -87 -1 0 16 64 143 69 137 3 -3 11 -33 18 -67z"/>
<path d="M5462 2791 c-101 -40 -189 -152 -238 -301 -23 -73 -24 -222 0 -265 9
-16 16 -34 16 -39 0 -11 59 -86 85 -108 39 -33 142 -78 179 -78 149 0 311 217
235 314 -16 21 -29 26 -64 26 -39 0 -47 -5 -84 -46 l-40 -45 -16 31 c-24 47
-11 269 17 286 5 3 24 -10 43 -30 44 -48 84 -49 131 -2 53 53 45 122 -25 194
-73 77 -151 98 -239 63z"/>
<path d="M9990 2791 c-38 -8 -80 -38 -80 -58 0 -7 -4 -13 -10 -13 -19 0 -10
-43 16 -77 l26 -34 -20 -22 c-62 -67 -90 -180 -72 -285 12 -69 28 -101 75
-145 69 -65 154 -83 223 -48 107 54 165 178 165 351 0 112 -18 167 -80 239
-63 73 -157 108 -243 92z m128 -350 c4 -93 -20 -166 -49 -150 -15 8 -19 21
-19 68 0 32 6 74 14 92 7 19 16 42 20 52 3 10 12 17 19 15 8 -3 13 -30 15 -77z"/>
<path d="M6315 2763 c-53 -13 -97 -80 -149 -223 -21 -58 -41 -112 -44 -120 -3
-8 -14 -42 -26 -74 -12 -33 -26 -61 -33 -63 -11 -4 -12 2 -34 142 -26 173 -51
215 -126 215 -33 0 -51 -13 -79 -55 -17 -27 -19 -48 -18 -200 1 -185 11 -238
61 -303 89 -117 224 -133 314 -35 22 24 45 57 51 74 11 32 28 30 28 -4 0 -30
53 -93 86 -101 40 -10 86 10 114 51 24 36 25 42 28 242 4 258 -5 346 -44 397
-16 20 -43 43 -61 50 -34 15 -35 15 -68 7z"/>
<path d="M3245 1299 c-168 -61 -295 -192 -282 -291 7 -51 60 -103 127 -125 29
-9 54 -22 57 -29 2 -6 -7 -23 -21 -37 -18 -18 -26 -37 -26 -61 0 -51 8 -65 47
-81 91 -38 221 2 258 81 39 82 -17 153 -165 209 -115 43 -130 53 -130 83 0 58
118 161 201 177 27 5 41 2 61 -14 14 -12 33 -21 42 -21 40 0 26 65 -21 95 -31
21 -110 28 -148 14z m60 -489 c21 -23 22 -21 -32 -49 -46 -23 -98 -28 -109 -9
-11 17 65 78 97 78 14 0 34 -9 44 -20z"/>
<path d="M9238 1269 c-34 -19 -12 -58 42 -74 14 -4 39 -18 55 -31 99 -75 116
-197 41 -288 -37 -45 -115 -90 -140 -80 -21 8 -24 22 -36 199 -11 155 -28 246
-47 252 -6 2 -18 -3 -27 -12 -12 -12 -16 -38 -17 -103 -1 -48 -3 -143 -5 -212
-4 -178 10 -214 87 -233 30 -8 144 23 185 49 101 65 154 150 154 249 0 133
-73 237 -195 274 -77 24 -74 24 -97 10z"/>
<path d="M8865 1201 c-57 -26 -97 -66 -93 -94 4 -31 41 -33 80 -5 18 13 48 28
65 34 28 10 33 9 33 -4 0 -16 -41 -56 -102 -98 -43 -30 -54 -54 -38 -84 13
-24 55 -27 96 -5 40 21 47 19 65 -14 16 -27 16 -31 -1 -59 -21 -34 -78 -72
-108 -72 -11 0 -34 8 -51 17 -29 17 -31 17 -47 1 -16 -15 -16 -22 -4 -58 8
-23 25 -50 38 -61 79 -62 238 34 256 156 9 60 -1 122 -26 156 -17 23 -19 33
-10 72 12 60 5 93 -26 117 -31 25 -75 25 -127 1z"/>
<path d="M5420 1163 c-45 -17 -50 -32 -50 -146 0 -110 7 -138 49 -189 20 -25
61 -22 108 8 60 40 77 75 78 164 0 64 -4 80 -24 107 -38 51 -108 75 -161 56z
m95 -109 c30 -32 30 -32 9 -84 -17 -41 -46 -66 -64 -55 -6 3 -10 42 -10 86 0
73 2 79 20 79 12 0 32 -12 45 -26z"/>
<path d="M3543 1152 c-35 -11 -63 -39 -56 -57 9 -26 43 -33 117 -24 75 9 109
30 104 63 -3 19 -11 21 -73 23 -38 1 -80 -2 -92 -5z"/>
<path d="M3794 1146 c-17 -13 -19 -29 -22 -132 -5 -163 4 -241 28 -247 25 -6
60 19 60 43 0 33 18 32 36 -1 22 -44 74 -89 101 -89 23 0 50 35 34 44 -16 10
-81 114 -81 130 0 8 9 20 21 26 28 15 59 69 59 103 0 38 -23 79 -60 111 -27
22 -41 26 -94 26 -38 0 -70 -6 -82 -14z m126 -82 c17 -15 30 -33 28 -42 -3
-16 -72 -45 -82 -35 -8 9 -8 88 1 96 11 12 20 8 53 -19z"/>
<path d="M4272 1153 c-16 -6 -52 -85 -52 -115 -1 -62 -43 -62 -60 0 -12 47
-32 66 -58 58 -31 -10 -35 -69 -10 -168 17 -71 25 -88 40 -88 10 0 18 -4 18
-9 0 -5 12 -12 27 -16 44 -11 60 18 99 174 30 119 34 146 22 156 -7 7 -19 10
-26 8z"/>
<path d="M5702 1145 c-40 -17 -50 -41 -28 -63 12 -13 31 -16 78 -14 101 5 159
40 128 77 -16 20 -133 20 -178 0z"/>
<path d="M6535 1115 l-49 -43 -23 24 c-25 27 -51 31 -59 9 -4 -8 -12 -15 -19
-15 -7 0 -25 -14 -40 -32 -26 -31 -27 -36 -23 -121 4 -82 13 -107 38 -107 24
0 35 26 40 92 4 56 8 73 20 73 10 0 19 -18 27 -59 12 -64 22 -80 48 -74 22 4
29 16 52 99 10 37 23 68 28 70 6 2 13 -28 17 -71 4 -41 9 -86 10 -100 4 -30
38 -39 62 -15 25 25 22 215 -4 273 -26 57 -57 57 -125 -3z"/>
<path d="M6758 1140 c-7 -11 -18 -20 -25 -20 -17 0 -18 -246 -2 -320 9 -40 15
-51 35 -56 31 -8 52 10 56 48 2 25 12 35 51 56 92 48 130 138 92 222 -28 61
-72 90 -139 90 -45 0 -58 -4 -68 -20z m115 -98 l26 -27 -21 -33 c-30 -47 -52
-39 -59 23 -5 45 1 64 22 65 3 0 17 -12 32 -28z"/>
<path d="M7041 1142 c-21 -16 -22 -25 -23 -186 -1 -150 1 -171 17 -182 25 -19
59 -3 63 30 5 36 26 33 52 -9 27 -44 74 -77 102 -73 33 4 33 33 1 76 -57 76
-65 102 -35 124 80 59 81 145 2 212 -27 22 -41 26 -95 26 -45 0 -69 -5 -84
-18z m108 -66 c15 -8 34 -22 41 -31 13 -15 11 -20 -9 -36 -28 -23 -67 -25 -75
-3 -12 32 -5 84 11 84 2 0 16 -6 32 -14z"/>
<path d="M7374 1146 c-38 -17 -46 -28 -38 -51 10 -26 44 -33 118 -24 75 9 109
30 104 63 -3 19 -11 21 -78 23 -47 2 -87 -3 -106 -11z"/>
<path d="M7689 1128 c-32 -25 -45 -45 -56 -82 -17 -58 -6 -95 38 -127 36 -26
36 -34 -2 -70 -25 -23 -28 -32 -20 -47 14 -27 60 -34 87 -13 61 45 70 116 24
179 -36 51 -37 56 -5 98 38 49 30 94 -15 94 -5 0 -27 -15 -51 -32z"/>
<path d="M8404 1143 c-3 -10 -10 -28 -15 -41 -5 -13 -9 -38 -9 -57 0 -52 -22
-44 -67 23 -68 102 -113 63 -113 -101 0 -81 18 -137 44 -137 32 0 46 14 52 51
4 21 9 39 13 39 3 0 23 -18 44 -40 40 -43 48 -46 77 -30 26 14 38 60 46 175 6
87 4 103 -10 118 -22 22 -55 22 -62 0z"/>
<path d="M4569 1119 c-57 -36 -81 -81 -82 -158 -1 -76 8 -97 55 -132 52 -37
105 -39 137 -5 24 26 37 84 22 105 -7 12 -14 10 -36 -8 -37 -28 -44 -27 -61
15 -17 41 -8 78 27 110 18 16 20 16 39 -1 16 -15 22 -15 35 -5 23 19 18 45
-16 79 -38 38 -61 38 -120 0z"/>
<path d="M4941 1136 c-6 -7 -10 -24 -9 -38 1 -13 -8 -45 -20 -71 -12 -26 -22
-52 -22 -59 0 -26 35 -98 48 -98 7 0 20 -7 28 -15 28 -28 62 -18 94 27 26 36
30 49 30 110 0 81 -21 121 -76 144 -42 18 -59 18 -73 0z m92 -127 c14 -22 -19
-89 -44 -89 -15 0 -19 7 -19 36 0 65 36 96 63 53z"/>
<path d="M8009 1134 c-7 -9 -12 -30 -10 -46 1 -16 -4 -37 -12 -46 -22 -26 -27
-74 -14 -121 10 -31 22 -46 50 -61 20 -11 46 -20 56 -20 32 0 68 58 75 120 10
96 -13 150 -77 178 -37 16 -52 15 -68 -4z m91 -140 c0 -44 -18 -76 -43 -72
-18 2 -22 8 -19 36 3 47 30 86 48 71 8 -6 14 -22 14 -35z"/>
<path d="M4372 1117 c-35 -42 -39 -225 -7 -288 19 -35 53 -39 59 -6 10 46 15
233 8 267 -8 38 -39 52 -60 27z"/>
<path d="M4779 1113 c-22 -25 -25 -228 -6 -276 16 -38 30 -44 57 -27 20 12 28
283 10 306 -16 19 -44 18 -61 -3z"/>
<path d="M6195 1094 c-18 -45 -20 -203 -3 -251 12 -33 43 -52 59 -36 13 13 23
264 10 296 -16 40 -47 36 -66 -9z"/>
<path d="M7843 1098 c-24 -44 -23 -219 1 -267 20 -37 53 -42 60 -8 10 46 15
233 8 267 -11 49 -44 53 -69 8z"/>
<path d="M3572 1000 c-58 -9 -82 -23 -82 -50 0 -21 27 -30 90 -30 54 0 93 18
98 45 4 19 -22 46 -42 44 -6 -1 -35 -5 -64 -9z"/>
<path d="M5754 1000 c-54 -8 -94 -25 -94 -40 0 -24 34 -40 85 -40 63 0 100 12
109 36 7 18 -19 55 -38 53 -6 -1 -34 -5 -62 -9z"/>
<path d="M7440 1004 c-72 -11 -100 -25 -100 -48 0 -29 16 -36 83 -36 85 0 129
36 92 74 -16 16 -25 17 -75 10z"/>
<path d="M3555 866 c-62 -14 -75 -22 -75 -46 0 -27 60 -41 140 -34 67 7 100
25 100 54 0 40 -58 50 -165 26z"/>
<path d="M5721 866 c-115 -25 -66 -94 57 -81 87 9 101 14 112 35 8 14 8 26 0
40 -9 16 -20 20 -63 19 -29 -1 -76 -7 -106 -13z"/>
<path d="M7404 866 c-51 -11 -84 -30 -84 -48 0 -5 16 -16 37 -24 39 -17 133
-13 186 8 29 11 37 44 15 66 -15 15 -85 14 -154 -2z"/>
</g>
</svg>
